<svg version="1.1" id="Layer_2" xmlns="http://www.w3.org/2000/svg" xmlns:xlink="http://www.w3.org/1999/xlink" x="0px" y="0px"
	 viewBox="0 0 164.2 71.4" style="enable-background:new 0 0 164.2 71.4;" xml:space="preserve">
<style type="text/css">
	.st0{fill:none;}
	.st1{font-family:'GreatVibes-Regular';}
	.st2{font-size:72px;}
	.st3{letter-spacing:7;}
	.st4{fill:#0E7F14;}
	.st5{fill-rule:evenodd;clip-rule:evenodd;fill:#D0C5C5;}
	.st6{fill:#E2DAA1;}
	.st7{fill-rule:evenodd;clip-rule:evenodd;fill:#D29393;}
	.st8{fill:#E2B524;}
	.st9{fill-rule:evenodd;clip-rule:evenodd;fill:#9FC0C7;}
	.st10{fill:#C6B412;}
</style>
<rect x="0.1" y="15.9" class="st0" width="159.3" height="54.8"/>
<text transform="matrix(1 0 0 1 8.317057e-02 60.9434)" class="st1 st2 st3">MC</text>
<g id="leaf6">
	<path class="st4" d="M132.4,65.5c0,0-0.3,2.9-5.6,1.4"/>
	<path class="st4" d="M132.5,65.5c0,0-1.4-2.4-5.6,1.4"/>
</g>
<g id="leaf5">
	<path class="st4" d="M150.4,58.1c0,0,0.6-4,7.9-1.7"/>
	<path class="st4" d="M150.4,58c0,0,1.9,3.5,7.9-1.7"/>
</g>
<g id="leaf4">
	<path class="st4" d="M144.3,63.9c0,0,4.2-4,7,4.1"/>
	<path class="st4" d="M144.4,63.8c0,0-2.1,5.2,7,4.1"/>
</g>
<g id="Bmediumflower">
	<g>
		<g>
			<g>
				<path class="st5" d="M147.7,57.3c-1.1-0.5-1.1-1.9-0.3-2.7c0.9-0.8,2.4-0.4,2.6,1c0.2,1.4,0.1,2,0.4,3.2
					C149.5,57.9,148.9,57.8,147.7,57.3z"/>
			</g>
		</g>
	</g>
	<g>
		<g>
			<g>
				<path class="st5" d="M148.2,61.1c-1.3,0.9-2.9,0.2-3-0.9c-0.1-1.2,1-2.2,2.4-1.9c1.4,0.3,2.1,0.6,3.6,0.5
					C149.9,59.5,149.5,60.1,148.2,61.1z"/>
			</g>
		</g>
	</g>
	<g>
		<g>
			<g>
				<path class="st5" d="M151.4,55.2c0.3-1.3,1.7-1.9,2.7-1.3c1,0.6,0.9,2.3-0.5,3.1c-1.4,0.7-2.1,0.8-3.4,1.6
					C151.1,57.3,151,56.6,151.4,55.2z"/>
			</g>
		</g>
	</g>
	<g>
		<g>
			<g>
				<path class="st5" d="M153.5,57.9c1.2-0.3,2,0.8,1.8,1.9c-0.2,1.1-1.6,1.8-2.5,0.9c-1-0.9-1.2-1.5-2.2-2.2
					C151.7,58.6,152.3,58.2,153.5,57.9z"/>
			</g>
		</g>
	</g>
	<g>
		<g>
			<g>
				<path class="st5" d="M152.1,61.4c0.6,0.9-0.1,2-1.3,2.1c-1.2,0.1-2.1-0.8-1.6-2c0.6-1.2,1.1-1.6,1.6-2.6
					C151,60.1,151.5,60.5,152.1,61.4z"/>
			</g>
		</g>
	</g>
	<ellipse transform="matrix(0.8079 -0.5893 0.5893 0.8079 -5.6532 100.0596)" class="st6" cx="150.6" cy="58.7" rx="1.5" ry="1.4"/>
</g>
<g id="Blargeflower">
	<g>
		<g>
			<g>
				<path class="st7" d="M146.5,66.6c1.3,1.1,0.5,2.9-1.3,3.7c-1.8,0.7-3.8-0.4-3.3-2.3c0.5-1.9,1.2-2.7,1.4-4.5
					C144.1,65,145.1,65.4,146.5,66.6z"/>
			</g>
		</g>
	</g>
	<g>
		<g>
			<g>
				<path class="st7" d="M147.1,61c1-0.4,2-0.2,2.7,0.4c0.7,0.6,1,1.5,0.8,2.5c-0.4,1.9-2.3,3.1-3.9,2c-1.8-1.1-2.4-2-4.5-2.5
					C144.3,62.7,145,61.9,147.1,61z"/>
			</g>
		</g>
	</g>
	<g>
		<g>
			<g>
				<path class="st7" d="M140.6,68.3c-0.9,1.8-3.2,1.7-4.4,0.2c-1.3-1.5-0.5-4,1.7-4.3c2.3-0.3,3.3,0.1,5.4-0.4
					C141.8,65.3,141.6,66.4,140.6,68.3z"/>
			</g>
		</g>
	</g>
	<g>
		<g>
			<g>
				<path class="st7" d="M138.7,63.8c-1.7,0.1-2.1-1.9-1.2-3.6c0.9-1.7,3.1-2.2,3.9-0.5c0.8,1.7,0.7,2.7,1.6,4.1
					C141.4,63.4,140.5,63.8,138.7,63.8z"/>
			</g>
		</g>
	</g>
	<g>
		<g>
			<g>
				<path class="st7" d="M141.9,59.2c-0.6-1.5,1.2-2.5,3.1-2c1.9,0.5,3,2.3,1.5,3.5c-1.5,1.2-2.5,1.5-3.7,2.5
					C143.1,61.6,142.5,60.8,141.9,59.2z"/>
			</g>
		</g>
	</g>
	<ellipse transform="matrix(0.881 -0.4731 0.4731 0.881 -13.0681 75.1954)" class="st8" cx="143" cy="63.6" rx="2.1" ry="1.9"/>
</g>
<g id="Bsmallflower">
	<g>
		<g>
			<g>
				<path class="st9" d="M135.6,63.7c0.8-0.7,1.8-0.4,2.1,0.3c0.3,0.7-0.5,1.7-1.5,1.6c-1.1-0.1-1.5-0.3-2.6-0.3
					C134.5,64.8,134.8,64.4,135.6,63.7z"/>
			</g>
		</g>
	</g>
	<g>
		<g>
			<g>
				<path class="st9" d="M132.6,63.2c-0.3-1.1,0.5-2.1,1.2-1.9c0.8,0.2,1.2,1.2,0.7,2c-0.5,0.9-0.8,1.3-1,2.4
					C133.2,64.7,132.9,64.3,132.6,63.2z"/>
			</g>
		</g>
	</g>
	<g>
		<g>
			<g>
				<path class="st9" d="M136,66.6c0.9,0.5,1.2,1.6,0.6,2.1c-0.5,0.6-1.7,0.2-2.1-0.9c-0.4-1.1-0.3-1.6-0.7-2.7
					C134.6,66,135.1,66.1,136,66.6z"/>
			</g>
		</g>
	</g>
	<g>
		<g>
			<g>
				<path class="st9" d="M133.3,67.6c-0.2,0.9-1.1,1.2-1.7,0.8c-0.7-0.4-0.7-1.5,0.2-2c0.9-0.5,1.3-0.5,2.1-1.1
					C133.5,66.2,133.5,66.6,133.3,67.6z"/>
			</g>
		</g>
	</g>
	<g>
		<g>
			<g>
				<path class="st9" d="M131.2,65.9c-0.9,0.2-1.6-0.5-1.5-1.2c0.1-0.8,1.1-1.2,1.9-0.7c0.8,0.6,1.1,1,1.8,1.6
					C132.5,65.4,132.1,65.6,131.2,65.9z"/>
			</g>
		</g>
	</g>
	
		<ellipse transform="matrix(0.1994 -0.9799 0.9799 0.1994 42.8994 183.3367)" class="st10" cx="133.6" cy="65.4" rx="1.1" ry="1.2"/>
</g>
<g id="leaf3">
	<path class="st4" d="M31.4,5.6c0,0-0.2-3.4,6-2.8"/>
	<path class="st4" d="M31.4,5.6c0,0,2.1,2.6,6-2.8"/>
</g>
<g id="leaf2">
	<path class="st4" d="M12.7,18.1c0,0,0.1,4.8-8.6,3.6"/>
	<path class="st4" d="M12.7,18.1c0,0-2.8-3.7-8.6,3.6"/>
</g>
<g id="leaf1">
	<path class="st4" d="M18.4,10c0,0-4,5.5-8.7-3.3"/>
	<path class="st4" d="M18.4,10.1c0,0,1.3-6.6-8.7-3.3"/>
</g>
<g id="Tmediumflower">
	<g>
		<g>
			<g>
				<path class="st7" d="M16.1,18.3c1.4,0.3,1.6,2,0.6,3.2c-1,1.2-2.9,1.1-3.3-0.5c-0.4-1.6-0.3-2.4-0.8-3.8
					C13.8,18,14.6,18,16.1,18.3z"/>
			</g>
		</g>
	</g>
	<g>
		<g>
			<g>
				<path class="st7" d="M14.5,13.9c1.2-1.4,3.3-0.9,3.7,0.6c0.5,1.5-0.5,3-2.1,2.9c-1.7-0.1-2.5-0.4-4.2,0
					C13,16.3,13.2,15.4,14.5,13.9z"/>
			</g>
		</g>
	</g>
	<g>
		<g>
			<g>
				<path class="st7" d="M12.5,21.7c0,1.7-1.6,2.5-3.1,2C8,23.2,7.5,21.1,9,19.9c1.5-1.1,2.4-1.3,3.7-2.5
					C12.2,19.1,12.5,20,12.5,21.7z"/>
			</g>
		</g>
	</g>
	<g>
		<g>
			<g>
				<path class="st7" d="M9.3,19.1C8.1,19.8,7,18.6,7,17c0-1.6,1.4-2.7,2.7-1.8c1.3,1,1.6,1.7,2.9,2.3C11.2,17.8,10.6,18.4,9.3,19.1
					z"/>
			</g>
		</g>
	</g>
	<g>
		<g>
			<g>
				<path class="st7" d="M9.9,14.6c-1-0.9-0.2-2.3,1.3-2.8c1.5-0.4,3,0.5,2.5,2c-0.6,1.5-1.1,2.1-1.6,3.4
					C11.6,15.9,10.9,15.5,9.9,14.6z"/>
			</g>
		</g>
	</g>
	<ellipse transform="matrix(0.5033 -0.8641 0.8641 0.5033 -8.8936 19.3185)" class="st6" cx="12.4" cy="17.4" rx="1.8" ry="1.6"/>
</g>
<g id="Tlargeflower">
	<g>
		<g>
			<g>
				<path class="st9" d="M14.9,7.4c-1-0.5-1.2-1.3-0.9-2.2c0.3-0.9,1.1-1.9,2.3-2.6c1.2-0.7,2.5-0.8,3.4-0.5c1,0.3,1.6,1.2,1.4,2.4
					c-0.4,2.5-1.2,3.6-1.3,5.7C18.2,8.6,16.9,8.4,14.9,7.4z"/>
			</g>
		</g>
	</g>
	<g>
		<g>
			<g>
				<path class="st9" d="M15.9,13.9c-1.1,0.7-2.3,0.7-3.1,0.1c-0.9-0.5-1.4-1.6-1.5-2.7c0-1.2,0.5-2.2,1.2-2.8
					c0.7-0.6,1.7-0.8,2.7-0.3c2.2,1,3.1,1.8,5.5,2C18.7,11.3,18.1,12.4,15.9,13.9z"/>
			</g>
		</g>
	</g>
	<g>
		<g>
			<g>
				<path class="st9" d="M21.2,3.8c0.2-1.2,1-1.8,2.1-2c1-0.1,2.3,0.2,3.3,1.1c1,0.9,1.6,2.1,1.5,3.2C28,7.2,27.3,8.2,26,8.6
					c-2.7,0.7-4.1,0.4-6.5,1.3C20.8,7.7,20.7,6.3,21.2,3.8z"/>
			</g>
		</g>
	</g>
	<g>
		<g>
			<g>
				<path class="st9" d="M25,8.5c2-0.6,2.7,1.8,1.8,4.4c-0.9,2.6-3.4,3.8-4.5,1.8c-1.1-2.1-1.2-3.4-2.4-5C21.8,9.8,22.9,9.1,25,8.5z
					"/>
			</g>
		</g>
	</g>
	<g>
		<g>
			<g>
				<path class="st9" d="M22.7,15c1.2,1.6-1,3.2-3.7,3c-2.7-0.2-4.7-2.1-3-3.8c1.7-1.7,2.9-2.2,4.3-3.7C20.4,12.5,21.5,13.3,22.7,15
					z"/>
			</g>
		</g>
	</g>
	<ellipse transform="matrix(0.6518 -0.7584 0.7584 0.6518 -0.6581 18.669)" class="st8" cx="20" cy="10.1" rx="2.5" ry="2.2"/>
</g>
<g id="Tsmallflower">
	<g>
		<g>
			<g>
				<path class="st5" d="M28.4,8.6c-0.6,1-2,0.8-2.6-0.1c-0.7-1-0.1-2.4,1.2-2.4c1.4,0,1.9,0.2,3.2,0C29.2,6.9,29.1,7.5,28.4,8.6z"
					/>
			</g>
		</g>
	</g>
	<g>
		<g>
			<g>
				<path class="st5" d="M32.5,8.2c0.9,1.2-0.3,2.6-1.8,2.6c-1.6,0-2.7-1.1-2-2.2c0.7-1.2,1.3-1.7,1.5-3.1C30.9,6.6,31.6,7,32.5,8.2
					z"/>
			</g>
		</g>
	</g>
	<g>
		<g>
			<g>
				<path class="st5" d="M26.9,5.2C25.7,5,25.3,3.6,26,2.7c0.7-1,2.3-0.9,2.8,0.4c0.5,1.3,0.5,2,1.1,3.2C28.8,5.5,28.1,5.6,26.9,5.2
					z"/>
			</g>
		</g>
	</g>
	<g>
		<g>
			<g>
				<path class="st5" d="M29.6,3.2c-0.1-1.1,1-1.6,2.1-1.2c1.1,0.4,1.5,1.7,0.5,2.4c-1,0.7-1.6,0.8-2.4,1.6
					C30.1,5,29.8,4.4,29.6,3.2z"/>
			</g>
		</g>
	</g>
	<g>
		<g>
			<g>
				<path class="st5" d="M32.7,4.1c0.9-0.8,1.8,0.4,1.9,1.9c0.1,1.5-0.9,2.8-2,2c-1.1-0.9-1.4-1.5-2.3-2.2
					C31.4,5.6,31.8,4.9,32.7,4.1z"/>
			</g>
		</g>
	</g>
	
		<ellipse transform="matrix(4.815262e-02 -0.9988 0.9988 4.815262e-02 22.6815 35.6865)" class="st10" cx="30.1" cy="5.9" rx="1.3" ry="1.3"/>
</g>
</svg>
